<?xml version="1.0" encoding="UTF-8"?>
<svg width="388px" height="162px" viewBox="0 0 388 162" version="1.1" xmlns="http://www.w3.org/2000/svg" xmlns:xlink="http://www.w3.org/1999/xlink">
    <title>Group 2</title>
    <defs>
        <radialGradient cx="54.573077%" cy="56.4323607%" fx="54.573077%" fy="56.4323607%" r="58.1012985%" gradientTransform="translate(0.545731,0.564324),rotate(90.000000),scale(1.000000,0.746599),translate(-0.545731,-0.564324)" id="radialGradient-1">
            <stop stop-color="#FFE91A" offset="0%"></stop>
            <stop stop-color="#FAC80A" offset="100%"></stop>
            <stop stop-color="#FAC80A" offset="100%"></stop>
        </radialGradient>
    </defs>
    <g id="Page-1" stroke="none" stroke-width="1" fill="none" fill-rule="evenodd">
        <g id="Letter" transform="translate(-799.000000, -488.000000)">
            <g id="Group-2" transform="translate(799.000000, 488.863086)">
                <g id="Group" transform="translate(348.051921, 38.500000) rotate(14.000000) translate(-348.051921, -38.500000) translate(315.051921, 8.000000)">
                    <path d="M59.4597148,13.5969848 L59.4597148,19.5969848 C63.084679,19.3112216 65.084679,18.3112216 65.4597148,16.5969848 C65.1937327,15.0307053 63.1937327,14.0307053 59.4597148,13.5969848 Z" id="Path-2" fill="#FF9711" transform="translate(62.459715, 16.596985) rotate(-5.000000) translate(-62.459715, -16.596985) "></path>
                    <path d="M4.38486646,0.6441036 C6.2424178,29.0579564 14.7359696,44.4066337 29.8655217,46.6901354 C20.3525111,45.9518949 10.704401,50.6032176 0.921191509,60.6441036 C39.4427772,60.6441036 57.4596505,49.7368422 54.9718113,27.9223194 C60.3525237,23.5728652 62.0834358,18.8981062 60.1645477,13.8980425 C51.5637777,-0.494644956 36.426337,14.3564568 40.7649541,20.6628941 C37.4976294,18.0220982 40.7649541,17.3783192 4.38486646,0.6441036 Z" id="Path" fill="url(#radialGradient-1)"></path>
                    <circle id="Oval" fill="#000000" cx="52.1532569" cy="14.528912" r="2.5"></circle>
                </g>
                <path d="M35.0118765,132.136914 C43.4996041,132.136914 50.9528899,129.137356 57.371734,123.13824 C63.790578,117.139124 67,110.070601 67,101.93267 C67,95.6727228 64.9045922,89.7257732 60.7137767,84.091821 C56.5229612,78.4578687 49.8388757,72.3022542 40.6615202,65.6249775 C31.4841647,58.9477007 25.5958036,54.0701587 22.9964371,50.9923515 C20.3970705,47.9145442 19.0973872,44.2889916 19.0973872,40.1156937 C19.0973872,35.9423957 20.5562154,32.4994249 23.4738717,29.7867812 C26.3915281,27.0741375 30.1579572,25.7178157 34.7731591,25.7178157 C39.388361,25.7178157 43.2874109,27.0219713 46.4703088,29.6302825 C49.6532067,32.2385937 52.7300079,35.5250659 55.7007126,39.489699 L55.7007126,39.489699 L64.9311164,32.4472586 C60.581156,26.3959766 56.0720507,21.8314319 51.4038005,18.7536247 C46.7355503,15.6758174 41.2715756,14.1369138 35.0118765,14.1369138 C27.0546318,14.1369138 20.4501188,16.6669757 15.1983373,21.7270995 C9.94655582,26.7872233 7.32066508,32.9689209 7.32066508,40.2721923 C7.32066508,43.7151632 7.9837688,47.1320509 9.30997625,50.5228555 C10.6361837,53.9136601 12.7050673,57.0957998 15.5166271,60.0692746 C18.3281869,63.0427494 23.7921615,67.5290447 31.9085511,73.5281605 C40.0249406,79.5272763 45.8337292,84.7178157 49.3349169,89.0997785 C52.8361045,93.4817414 54.5866983,97.811538 54.5866983,102.089168 C54.5866983,107.514456 52.5178147,112.052917 48.3800475,115.704553 C44.2422803,119.356189 39.2557403,121.182007 33.4204276,121.182007 C24.4022169,121.182007 16.4980206,115.026392 9.70783848,102.715163 L9.70783848,102.715163 L0,108.349115 C8.38163104,124.207648 20.0522565,132.136914 35.0118765,132.136914 Z M92.5,31.1369138 C94.8569322,31.1369138 96.8628319,30.3094802 98.5176991,28.6546129 C100.172566,26.9997457 101,24.993846 101,22.6369138 C101,20.2799817 100.172566,18.274082 98.5176991,16.6192147 C96.8628319,14.9643474 94.8569322,14.1369138 92.5,14.1369138 C90.1430678,14.1369138 88.1371681,14.9894212 86.4823009,16.6944359 C84.8274336,18.3994507 84,20.4053504 84,22.7121351 C84,24.9186247 84.8274336,26.8743769 86.4823009,28.5793917 C88.1371681,30.2844064 90.1430678,31.1369138 92.5,31.1369138 Z M98,129.136914 L98,45.1369138 L87,45.1369138 L87,129.136914 L98,129.136914 Z M128.855603,129.136914 L128.861134,96.6435437 C128.916445,86.4632828 129.386584,79.6185652 130.271552,76.1093909 C131.215517,72.3662716 133.051006,68.7271279 135.778017,65.1919597 C138.505029,61.6567915 141.808908,58.9014398 145.689655,56.9259046 C149.570402,54.9503695 153.529813,53.9626019 157.567888,53.9626019 C161.605963,53.9626019 165.040948,54.5864551 167.872845,55.8341615 C170.704741,57.0818679 173.038434,58.9014398 174.873922,61.2928771 C176.709411,63.6843144 178.072917,66.5956294 178.96444,70.0268221 C179.855963,73.4580147 180.301724,80.0084734 180.301724,89.6781982 L180.301724,89.6781982 L180.301724,129.136914 L191,129.136914 L191,86.5589322 C191,75.9534276 189.951149,67.9213175 187.853448,62.4626019 C185.755747,57.0038863 182.189655,52.584926 177.155172,49.2057212 C172.12069,45.8265163 166.456897,44.1369138 160.163793,44.1369138 C147.892241,44.1369138 137.456178,49.8035805 128.855603,61.1369138 L128.855603,61.1369138 L128.855603,46.3204001 L118,46.3204001 L118,129.136914 L128.855603,129.136914 Z M249.128159,160.136914 C255.51444,160.136914 261.377256,159.195101 266.716606,157.311474 C272.055957,155.427848 276.610108,152.707054 280.379061,149.149092 C284.148014,145.591131 287.027076,141.14368 289.016245,135.806738 C291.005415,130.469796 292,122.098123 292,110.691718 L292,110.691718 L292,46.3344781 L281.16426,46.3344781 L281.16426,60.7756148 C271.951264,49.6831475 261.24639,44.1369138 249.049639,44.1369138 C236.852888,44.1369138 226.462094,48.3227505 217.877256,56.694424 C209.292419,65.0660974 205,75.0597826 205,86.6754794 C205,97.8725927 209.030686,107.604663 217.092058,115.871691 C225.15343,124.138718 235.256318,128.272232 247.400722,128.272232 C253.891697,128.272232 260.068592,126.964158 265.931408,124.34801 C271.794224,121.731862 276.871841,117.755317 281.16426,112.418375 L281.16426,112.418375 L281.16426,116.028659 C281.16426,125.028208 280.091155,131.647063 277.944946,135.885222 C275.798736,140.123382 272.134477,143.602859 266.952166,146.323653 C261.769856,149.044447 255.67148,150.404843 248.65704,150.404843 C234.104693,150.404843 223.792419,144.963256 217.720217,134.08008 L217.720217,134.08008 L206.099278,134.08008 C213.009025,151.451303 227.351986,160.136914 249.128159,160.136914 Z M247.577566,118.136914 C238.062848,118.136914 230.254574,115.115567 224.152745,109.072874 C218.050915,103.030181 215,95.7001322 215,87.0827266 C215,78.465321 218.154336,70.8200008 224.463007,64.146766 C230.771679,57.4735312 238.683373,54.1369138 248.198091,54.1369138 C257.195704,54.1369138 264.745426,57.237078 270.847255,63.4374064 C276.949085,69.6377348 280,77.3093276 280,86.4521848 C280,95.8052225 276.97494,103.42427 270.924821,109.309328 C264.874702,115.194385 257.092283,118.136914 247.577566,118.136914 Z" id="Sing" fill="#FFFFFF" fill-rule="nonzero"></path>
            </g>
        </g>
    </g>
</svg>